<?xml version="1.0" standalone="no"?>
<!DOCTYPE svg PUBLIC "-//W3C//DTD SVG 20010904//EN"
 "http://www.w3.org/TR/2001/REC-SVG-20010904/DTD/svg10.dtd">
<svg version="1.0" xmlns="http://www.w3.org/2000/svg"
 width="128.000000pt" height="128.000000pt" viewBox="0 0 128.000000 128.000000"
 preserveAspectRatio="xMidYMid meet">
<metadata>
Created by potrace 1.14, written by Peter Selinger 2001-2017
</metadata>
<g transform="translate(0.000000,128.000000) scale(0.100000,-0.100000)"
fill="#000000" stroke="none">
<path d="M500 1091 c0 -115 -3 -122 -47 -113 -20 4 -23 11 -23 46 l0 42 -175
0 -175 -1 0 -492 0 -493 340 0 340 0 1 363 c1 266 4 353 11 327 6 -19 48 -181
94 -358 45 -178 84 -326 86 -328 4 -3 238 62 244 69 2 1 -13 63 -32 137 -19
74 -37 142 -39 150 -19 76 -48 192 -68 270 -14 52 -42 160 -62 240 -21 80 -39
148 -41 151 -2 4 -41 -4 -86 -17 -45 -13 -88 -24 -95 -24 -9 0 -13 19 -13 70
l0 70 -130 0 -130 0 0 -109z m193 40 c4 -1 7 -7 7 -14 0 -16 -108 -21 -131 -6
-29 19 41 30 124 20z m4 -498 l0 -403 -67 0 -67 0 0 404 0 403 67 0 67 -1 0
-403z m222 360 c6 -21 19 -72 30 -113 53 -203 171 -668 171 -676 0 -6 -24 -16
-52 -24 -29 -7 -59 -15 -65 -17 -8 -3 -13 3 -13 15 0 12 -4 31 -9 44 -6 13
-33 115 -61 228 -29 113 -69 270 -90 350 -54 206 -55 189 10 210 30 10 58 18
62 19 4 1 12 -16 17 -36z m-549 -27 c0 -19 -6 -36 -12 -38 -7 -2 -49 -3 -93
-2 -135 3 -125 0 -125 39 l0 35 115 0 115 0 0 -34z m130 -439 l0 -383 -27 2
c-16 1 -31 2 -35 3 -5 0 -8 172 -8 381 l0 380 35 0 35 0 0 -383z m-130 313 c0
-20 -5 -21 -112 -18 -98 3 -113 5 -116 21 -3 15 7 17 112 17 110 0 116 -1 116
-20z m-2 -284 l-3 -201 -110 0 -110 0 -1 200 -2 201 114 1 114 0 -2 -201z m0
-283 c-3 -16 -18 -18 -113 -21 -105 -2 -111 -2 -112 18 -2 19 4 20 113 20 105
0 115 -2 112 -17z m-10 -92 c6 0 12 -7 12 -15 0 -20 -14 -22 -125 -22 -92 1
-100 3 -103 21 -3 19 2 20 100 19 57 -1 109 -2 116 -3z m330 -26 c-2 -6 -28
-10 -58 -11 -59 0 -73 3 -66 15 7 11 126 7 124 -4z"/>
</g>
</svg>
